#!OML:ASF X:\für Bonn\!DataBase\2005_08_11_Bastian_Final\c3d\Bastian.ASF
:FULLY-SPECIFIED
:DEGREES
61
root -2.01653 17.3764 20.3611 -912.752 -18.4283 -179.334
lowerback 15.7598 0.980919 -3.57735
upperback 13.1304 -1.37559 -1.72675
thorax 5.22466 -1.85246 0.234962
lowerneck -7.82216 -9.46587 -16.66
upperneck -3.39977 -11.6136 13.4554
head 2.03053 -5.67703 6.13179
rclavicle 5.1684e-014 4.45278e-014
rhumerus -28.6387 2.45592 -90.9357
rradius 47.5316
rwrist -0.215836
rhand -10.5593 2.22258
rfingers 7.12502
rthumb 15.445 -27.1804
lclavicle 5.1684e-014 4.45278e-014
lhumerus -17.2898 -1.32779 77.9958
lradius 26.5596
lwrist 22.7847
lhand -15.9708 -10.0636
lfingers 7.12502
lthumb 10.2283 19.6677
rfemur -7.83615 -0.893761 19.8455
rtibia 38.8678
rfoot -13.058 -10.2812
rtoes -1.04963
lfemur 9.72066 2.08245 -15.3645
ltibia 16.9074
lfoot -8.86056 -13.279
ltoes -15.9091
62
root -2.00907 17.3771 20.3618 -912.805 -18.5481 -179.378
lowerback 16.0529 1.06677 -3.68157
upperback 13.2987 -1.34916 -1.83785
thorax 5.25757 -1.87149 0.1713
lowerneck -7.59526 -9.53817 -16.7234
upperneck -3.79498 -11.7366 13.5856
head 1.90881 -5.75152 6.18958
rclavicle 6.67916e-014 -4.29375e-014
rhumerus -28.4152 2.60091 -90.84
rradius 47.3438
rwrist -0.121011
rhand -10.6941 2.21149
rfingers 7.12502
rthumb 15.3152 -27.2014
lclavicle 6.67916e-014 -4.29375e-014
lhumerus -16.9453 -1.6707 77.7802
lradius 27.2526
lwrist 23.3602
lhand -16.0936 -10.2236
lfingers 7.12502
lthumb 10.1098 19.5135
rfemur -7.93509 -0.938425 19.7287
rtibia 38.6312
rfoot -12.9031 -10.3163
rtoes -1.15711
lfemur 9.82624 1.86394 -15.4695
ltibia 16.7868
lfoot -8.9075 -13.1339
ltoes -16.2953
63
root -2.00071 17.3761 20.362 -912.849 -18.6414 -179.454
lowerback 16.3822 1.16814 -3.81378
upperback 13.449 -1.30801 -1.95185
thorax 5.25227 -1.88418 0.119945
lowerneck -7.36603 -9.59306 -16.8009
upperneck -4.18043 -11.8355 13.7261
head 1.78814 -5.81387 6.25542
rclavicle 5.1684e-014 -2.14687e-014
rhumerus -28.2121 2.81041 -90.7279
rradius 47.1889
rwrist -0.0686169
rhand -10.7868 2.12611
rfingers 7.12502
rthumb 15.2258 -27.2936
lclavicle 5.1684e-014 -2.14687e-014
lhumerus -16.6476 -2.0456 77.5735
lradius 27.8891
lwrist 23.8629
lhand -16.1883 -10.4887
lfingers 7.12502
lthumb 10.0185 19.2528
rfemur -8.01892 -0.967004 19.5894
rtibia 38.4202
rfoot -12.7461 -10.3153
rtoes -1.62396
lfemur 9.92671 1.66631 -15.6004
ltibia 16.6959
lfoot -8.96121 -12.9635
ltoes -16.8083
64
root -1.99201 17.3752 20.3618 -912.908 -18.7746 -179.551
lowerback 16.7523 1.2605 -3.92996
upperback 13.6091 -1.28634 -2.10631
thorax 5.23688 -1.90628 0.0188708
lowerneck -7.18499 -9.66738 -16.828
upperneck -4.52193 -11.9597 13.88
head 1.69047 -5.88826 6.31237
rclavicle 3.33958e-014 1.27222e-014
rhumerus -28.0113 2.99732 -90.6773
rradius 47.0187
rwrist -0.00355878
rhand -10.9066 2.10431
rfingers 7.12502
rthumb 15.1105 -27.3241
lclavicle 3.33958e-014 1.27222e-014
lhumerus -16.3678 -2.58957 77.3146
lradius 28.5727
lwrist 24.5072
lhand -16.2846 -10.7319
lfingers 7.12502
lthumb 9.92556 19.0141
rfemur -8.06219 -0.999618 19.4289
rtibia 38.2262
rfoot -12.5913 -10.3798
rtoes -2.11307
lfemur 10.0305 1.40675 -15.7712
ltibia 16.6386
lfoot -9.0627 -12.7613
ltoes -17.4569
65
root -1.98164 17.3719 20.362 -912.955 -18.8843 -179.631
lowerback 17.116 1.358 -4.04248
upperback 13.7852 -1.26368 -2.24224
thorax 5.24441 -1.93117 -0.066438
lowerneck -7.10007 -9.74166 -16.8827
upperneck -4.83959 -12.0704 14.0394
head 1.6152 -5.95411 6.37181
rclavicle 0 4.29375e-014
rhumerus -27.7485 3.22776 -90.6161
rradius 46.8558
rwrist 0.0208917
rhand -10.9845 2.08836
rfingers 7.12502
rthumb 15.0355 -27.3457
lclavicle 0 4.29375e-014
lhumerus -16.0334 -3.02912 77.0634
lradius 29.1778
lwrist 24.9819
lhand -16.3635 -10.9811
lfingers 7.12502
lthumb 9.84952 18.7685
rfemur -8.12655 -1.04435 19.2971
rtibia 38.0491
rfoot -12.4478 -10.4031
rtoes -2.92476
lfemur 10.0926 1.23184 -15.8923
ltibia 16.6166
lfoot -9.14842 -12.6378
ltoes -18.0376
66
root -1.97011 17.3691 20.3624 -913.042 -19.0064 -179.698
lowerback 17.5631 1.44988 -4.13583
upperback 13.9442 -1.25414 -2.3751
thorax 5.19066 -1.96082 -0.154913
lowerneck -6.97143 -9.81199 -16.957
upperneck -5.16745 -12.1795 14.1946
head 1.53095 -6.02031 6.43567
rclavicle 5.96354e-015 -5.96354e-014
rhumerus -27.5341 3.44229 -90.5648
rradius 46.7124
rwrist 0.0320637
rhand -11.0569 2.10719
rfingers 7.12502
rthumb 14.9657 -27.3321
lclavicle 5.96354e-015 -5.96354e-014
lhumerus -15.7492 -3.46166 76.823
lradius 29.7522
lwrist 25.4338
lhand -16.4195 -11.282
lfingers 7.12502
lthumb 9.7954 18.4702
rfemur -8.14676 -1.12459 19.1777
rtibia 37.8778
rfoot -12.2879 -10.4095
rtoes -3.6198
lfemur 10.1654 0.976404 -16.0201
ltibia 16.6478
lfoot -9.26742 -12.4438
ltoes -18.5264
67
root -1.95698 17.365 20.3628 -913.1 -19.1186 -179.776
lowerback 17.9985 1.55009 -4.24022
upperback 14.1053 -1.23773 -2.5208
thorax 5.14657 -1.98813 -0.252816
lowerneck -6.89086 -9.88936 -17.0159
upperneck -5.46595 -12.2939 14.3668
head 1.46464 -6.08847 6.49904
rclavicle -4.29375e-014 -1.11319e-014
rhumerus -27.3133 3.62983 -90.5361
rradius 46.5902
rwrist 0.0770549
rhand -11.0779 2.16315
rfingers 7.12502
rthumb 14.9455 -27.2776
lclavicle -4.29375e-014 -1.11319e-014
lhumerus -15.4725 -3.95273 76.5344
lradius 30.3016
lwrist 25.8151
lhand -16.4329 -11.5616
lfingers 7.12502
lthumb 9.7825 18.1912
rfemur -8.19401 -1.2132 19.0482
rtibia 37.7182
rfoot -12.1504 -10.3589
rtoes -4.12738
lfemur 10.1882 0.730593 -16.153
ltibia 16.7304
lfoot -9.40814 -12.2563
ltoes -18.9957
68
root -1.94172 17.3607 20.3637 -913.204 -19.2277 -179.796
lowerback 18.4889 1.64218 -4.31163
upperback 14.2755 -1.23858 -2.62308
thorax 5.08691 -2.02591 -0.320148
lowerneck -6.86226 -9.97393 -17.1729
upperneck -5.73764 -12.4049 14.5658
head 1.42202 -6.15236 6.58274
rclavicle -4.09496e-014 -4.77083e-015
rhumerus -27.082 3.92696 -90.4832
rradius 46.4822
rwrist 0.00494576
rhand -11.1159 2.28116
rfingers 7.12502
rthumb 14.9088 -27.1623
lclavicle -4.09496e-014 -4.77083e-015
lhumerus -15.1635 -4.34933 76.2821
lradius 30.7819
lwrist 26.1123
lhand -16.3713 -11.8107
lfingers 7.12502
lthumb 9.84196 17.9393
rfemur -8.20541 -1.31815 18.9968
rtibia 37.5631
rfoot -11.9651 -10.3399
rtoes -4.95812
lfemur 10.201 0.576939 -16.1842
ltibia 16.8595
lfoot -9.56363 -12.1641
ltoes -19.7188
69
root -1.92496 17.3543 20.3653 -913.297 -19.3561 -179.841
lowerback 19.0095 1.74059 -4.37245
upperback 14.444 -1.23632 -2.75603
thorax 5.0109 -2.06085 -0.426147
lowerneck -6.85705 -10.0651 -17.247
upperneck -5.99039 -12.5281 14.7419
head 1.38434 -6.22328 6.64393
rclavicle -2.46493e-014 6.36111e-015
rhumerus -26.8755 4.12627 -90.4595
rradius 46.422
rwrist 0.0236926
rhand -11.0468 2.4356
rfingers 7.12502
rthumb 14.9754 -27.0029
lclavicle -2.46493e-014 6.36111e-015
lhumerus -14.844 -4.72579 75.9924
lradius 31.2175
lwrist 26.3389
lhand -16.1991 -12.1161
lfingers 7.12502
lthumb 10.0081 17.6259
rfemur -8.2166 -1.40554 18.9216
rtibia 37.4256
rfoot -11.8301 -10.3244
rtoes -5.5734
lfemur 10.1905 0.446801 -16.2285
ltibia 17.0227
lfoot -9.66742 -12.1371
ltoes -20.075
70
root -1.90578 17.3487 20.3657 -913.427 -19.4918 -179.813
lowerback 19.5447 1.82908 -4.37647
upperback 14.6195 -1.24333 -2.86333
thorax 4.93708 -2.09819 -0.535527
lowerneck -6.83694 -10.1578 -17.3743
upperneck -6.24558 -12.6513 14.9603
head 1.35081 -6.29409 6.72698
rclavicle -2.3059e-014 -1.41535e-013
rhumerus -26.6796 4.38428 -90.4494
rradius 46.3838
rwrist -0.0352054
rhand -11.0709 2.6001
rfingers 7.12502
rthumb 14.9522 -26.8402
lclavicle -2.3059e-014 -1.41535e-013
lhumerus -14.5563 -5.16935 75.6986
lradius 31.6169
lwrist 26.4393
lhand -16.0106 -12.379
lfingers 7.12502
lthumb 10.1899 17.3542
rfemur -8.1925 -1.54293 18.9312
rtibia 37.2965
rfoot -11.6998 -10.2842
rtoes -6.17277
lfemur 10.1786 0.217695 -16.2166
ltibia 17.2121
lfoot -9.85443 -12.0171
ltoes -20.6789
71
root -1.88344 17.3413 20.3662 -913.564 -19.6487 -179.806
lowerback 20.1213 1.91972 -4.42094
upperback 14.7964 -1.26307 -2.98485
thorax 4.84714 -2.14642 -0.635163
lowerneck -6.83684 -10.2319 -17.4103
upperneck -6.4976 -12.7539 15.1297
head 1.30905 -6.3561 6.78219
rclavicle 5.56597e-015 1.59028e-015
rhumerus -26.4644 4.61483 -90.4759
rradius 46.309
rwrist -0.0624205
rhand -11.0188 2.85174
rfingers 7.12502
rthumb 15.0024 -26.5848
lclavicle 5.56597e-015 1.59028e-015
lhumerus -14.288 -5.64203 75.3623
lradius 32.0101
lwrist 26.4721
lhand -15.7969 -12.6029
lfingers 7.12502
lthumb 10.3961 17.1201
rfemur -8.1476 -1.69486 18.9327
rtibia 37.1923
rfoot -11.6301 -10.2451
rtoes -6.61628
lfemur 10.1594 -0.0392239 -16.2235
ltibia 17.4327
lfoot -10.056 -11.8719
ltoes -21.4732
